# xmcd
#
# Track frame offsets:
# 150
# 16042
# 47744
# 70904
# 87208
#
# Disc length: 1363 seconds
#
#
# Revision: 0
# Processed by: cddbd v1.5.2PL0 Copyright (c) Steve Scherf et al.
# Submitted via: FreeRIP 2.951 
#
DISCID=33055105
DTITLE=Sandra - The Way I Am
DYEAR=2007
DGENRE=Pop
TTITLE0=The Way I Am (Radio Edit)
TTITLE1=The Way I Am (Extended Club Edit)
TTITLE2=The Way I Am (Lounge Edit)
TTITLE3=Logical Love
TTITLE4=Sleep (Alternative Version "Casino Royale")
EXTD=Copyright 2007 EMI Music
EXTT0=
EXTT1=
EXTT2=
EXTT3=
EXTT4=
PLAYORDER=
